<svg xmlns="http://www.w3.org/2000/svg" viewBox="0 0 30 31"><defs><style>.cls-1{fill:#b9ce59;}</style></defs><g id="Layer_1" data-name="Layer 1"><path class="cls-1" d="M23.57,23.71l-4.77-1.8a3,3,0,0,0-2.93.56l-1.19,1s-.42-.16-1-.41h0s-5.29-4.17-6.49-7.81c0-.12-.07-.24-.1-.34h0C7,14.53,7,14.29,7,14.29l1.17-1a3,3,0,0,0,1-2.82l-1-5c-2.19-4.07-6.87.86-6.87.86a9.54,9.54,0,0,0-.72,7.94c0,.14,1.41,7.62,10.55,13.88,2.6,2.06,6.35,3.87,10.54,2.24C21.63,30.37,27.23,26.52,23.57,23.71Z"/><path class="cls-1" d="M19.36,18.26h-.12a1.17,1.17,0,0,1-1-1.29A4.75,4.75,0,0,0,14,11.75a1.17,1.17,0,0,1,.25-2.33,7.09,7.09,0,0,1,6.29,7.78A1.17,1.17,0,0,1,19.36,18.26Z"/><path class="cls-1" d="M24,18.74h-.13a1.18,1.18,0,0,1-1-1.29A9.43,9.43,0,0,0,14.47,7.09a1.18,1.18,0,0,1,.24-2.34A11.78,11.78,0,0,1,25.18,17.69,1.17,1.17,0,0,1,24,18.74Z"/><path class="cls-1" d="M28.75,19.24h-.12a1.18,1.18,0,0,1-1.05-1.29A14.21,14.21,0,0,0,15,2.34,1.17,1.17,0,1,1,15.21,0a16.56,16.56,0,0,1,14.7,18.18A1.17,1.17,0,0,1,28.75,19.24Z"/></g></svg>