<?xml version="1.0" encoding="utf-8"?>
<!-- Generator: Adobe Illustrator 26.0.0, SVG Export Plug-In . SVG Version: 6.00 Build 0)  -->
<svg version="1.1" xmlns="http://www.w3.org/2000/svg" xmlns:xlink="http://www.w3.org/1999/xlink" x="0px" y="0px"
	 viewBox="0 0 250 172.53" style="enable-background:new 0 0 250 172.53;" xml:space="preserve">
<style type="text/css">
	.st0{opacity:0.7;fill:#FFFFFF;}
	.st1{fill:#549EAB;}
	.st2{opacity:0.75;}
	.st3{fill:#E6E6E6;}
	.st4{fill:#FFFFFF;}
	.st5{fill:#B9CE59;}
	.st6{fill:none;stroke:#549EAB;stroke-width:1.5104;stroke-miterlimit:10;}
	.st7{fill:none;stroke:#FCFCFC;stroke-width:4.1275;stroke-linecap:round;stroke-linejoin:round;stroke-miterlimit:10;}
	.st8{fill:none;stroke:#B9CE59;stroke-width:4.5575;stroke-linecap:round;stroke-linejoin:round;stroke-miterlimit:10;}
	.st9{fill:none;stroke:#FCFCFC;stroke-width:4.5575;stroke-linecap:round;stroke-linejoin:round;stroke-miterlimit:10;}
	.st10{fill:none;stroke:#B9CE59;stroke-width:4.5575;stroke-linejoin:round;stroke-miterlimit:10;}
	.st11{fill:none;stroke:#FFFFFF;stroke-width:4.5575;stroke-linecap:round;stroke-linejoin:round;stroke-miterlimit:10;}
	.st12{fill:none;stroke:#549EAB;stroke-width:1.5;stroke-miterlimit:10;}
	.st13{fill:none;stroke:#549EAB;stroke-width:1.2216;stroke-miterlimit:10;}
	.st14{fill:none;stroke:#549EAB;stroke-width:3;stroke-miterlimit:10;}
	.st15{fill-rule:evenodd;clip-rule:evenodd;fill:#FFFFFF;}
	.st16{fill-rule:evenodd;clip-rule:evenodd;}
	.st17{opacity:0.4;}
	.st18{fill:none;stroke:#FFFFFF;stroke-width:5;stroke-linecap:round;stroke-linejoin:round;stroke-miterlimit:10;}
</style>
<g id="Layer_4">
</g>
<g id="Layer_3">
</g>
<g id="Layer_2">
</g>
<g id="Layer_1">
	<g>
		<path class="st4" d="M158.43,172.46V162.4l-9.16-13.69h3.78l4.69,7.19c0.87,1.33,1.69,2.67,2.43,4c0.72-1.24,1.6-2.64,2.63-4.19
			l4.6-7h3.67l-9.49,13.69v10.06H158.43z M137.51,172.46v-20.97h-7.83v-2.79h18.81v2.79h-7.83v20.97H137.51z M117.9,172.46V148.7
			h3.15v20.97h11.68v2.79H117.9z M100.13,162.71h8.1l-2.48-6.59c-0.75-2-1.31-3.65-1.7-4.96c-0.33,1.55-0.76,3.07-1.31,4.57
			L100.13,162.71z M93.29,172.46l9.11-23.76h3.46l9.67,23.76h-3.58l-2.75-7.2h-10l-2.58,7.2H93.29z M73.83,172.46V148.7h17.15v2.79
			h-14v7.3h13.11v2.79H76.98v8.1h14.57v2.79H73.83z M53.02,159.19h6.75c1.44,0,2.56-0.15,3.36-0.45c0.81-0.29,1.42-0.77,1.84-1.43
			c0.42-0.65,0.63-1.36,0.63-2.13c0-1.12-0.4-2.05-1.22-2.78c-0.81-0.72-2.1-1.08-3.85-1.08h-7.51V159.19z M49.87,172.46V148.7H60.4
			c2.12,0,3.73,0.22,4.83,0.64c1.1,0.43,1.98,1.18,2.64,2.26c0.66,1.08,0.98,2.27,0.98,3.58c0,1.69-0.55,3.11-1.64,4.26
			c-1.09,1.16-2.77,1.89-5.05,2.2c0.84,0.4,1.47,0.8,1.9,1.18c0.92,0.84,1.79,1.9,2.6,3.16l4.11,6.47h-3.93l-3.14-4.94
			c-0.91-1.43-1.67-2.52-2.26-3.28c-0.6-0.76-1.13-1.28-1.6-1.59c-0.47-0.3-0.95-0.51-1.43-0.63c-0.35-0.07-0.93-0.11-1.75-0.11
			h-3.64v10.55H49.87z"/>
		<path class="st4" d="M177.14,86.72l16.19,16.18l7.67,7.67c-0.71,0.94-1.49,1.84-2.35,2.7c-5.1,5.1-11.25,7.64-18.47,7.64
			c-7.18,0-13.31-2.55-18.41-7.64c-5.09-5.09-7.64-11.25-7.64-18.47c0-7.18,2.55-13.31,7.64-18.41c0.87-0.86,1.76-1.65,2.68-2.37
			c4.53-3.52,9.76-5.28,15.73-5.28h0.03v0.01h1.64L167.5,54.41c-5.29,1.62-10.14,4.33-14.55,8.12c-0.89,0.76-1.77,1.57-2.63,2.43
			c-1.77,1.77-3.34,3.62-4.73,5.55c-1.39-1.93-2.96-3.78-4.73-5.55c-8.22-8.23-18.15-12.34-29.79-12.34H85.31H72.54h-7.62
			l-0.27,0.35L0,137.21h20.39l13.72-17.88h38.43v17.66h38.54c11.64,0,21.57-4.13,29.79-12.39c1.76-1.75,3.32-3.58,4.7-5.48
			c1.4,1.94,2.98,3.81,4.76,5.59c8.26,8.26,18.21,12.39,29.85,12.39c11.68,0,21.65-4.13,29.91-12.39c0.86-0.86,1.67-1.73,2.43-2.62
			c3.78-4.4,6.49-9.25,8.11-14.55l-20.82-20.82H177.14z M46.73,102.9l17.93-23.36l7.89-10.28v33.64H46.73z M128.94,112.67
			c-4.93,4.97-10.88,7.45-17.86,7.45H89.42V69.5h21.66c6.98,0,12.93,2.47,17.86,7.39c4.97,4.96,7.45,10.94,7.45,17.92
			C136.39,101.79,133.91,107.75,128.94,112.67z"/>
		<path class="st1" d="M242.73,13.89c0,0-15.86,3.48-22.09,17.16c-6.23,13.68-18.75,19.43-21.16,19.88
			C208.34,49.68,239.99,44.72,242.73,13.89 M199.08,53.05c0,0,31.01,14.23,50.92-9.15c-8.38-2.88-19.24,0.49-27.07,4.4
			C215.11,52.21,206.41,54.49,199.08,53.05z M201,56.73c0,0,16.97,19.22,40.2,12.24c-7.14-9.15-20.78-6.59-25.08-6.91
			C211.81,61.74,205.68,60.19,201,56.73z M174.31,1.69c0,0-15.87,26.12,18.27,53.64c26.21,18.1,35.3,31.63,29.11,48.92
			c1.35-12.15-9.32-25.11-18.98-33c-7.97-6.51-30.02-22.56-34.75-36.64C162.97,19.77,165.88,9.41,174.31,1.69z"/>
		<path class="st5" d="M176.7,12.7c0,0,15.01,11.37,18.74,35.13C186.77,39.77,178.55,25.01,176.7,12.7 M191.98,3.3
			c0,0,17.69,16.34,5.55,44.51c0.8-11.2-1.26-21.22-4.88-28.29C189.02,12.44,190.26,5.84,191.98,3.3z M217.14,0
			c0,0-9.13,5.28-9.82,25.6c-0.07,10.24-2.73,17.92-8.71,23.08C206.82,43.88,226.94,25.45,217.14,0z M174.7,50.75
			c0,0,7.3,12.65,25.85,23.4c8.68,5.45,19.43,14.49,18.89,28.88c-1.94-7.28-8.59-17.4-16.97-22.91
			C186.82,69.84,176.52,61.63,174.7,50.75z"/>
	</g>
</g>
<g id="Layer_5">
</g>
<g id="Layer_6">
</g>
<g id="Layer_7">
</g>
</svg>
