<?xml version="1.0" encoding="utf-8"?>
<!-- Generator: Adobe Illustrator 26.0.0, SVG Export Plug-In . SVG Version: 6.00 Build 0)  -->
<svg version="1.1" xmlns="http://www.w3.org/2000/svg" xmlns:xlink="http://www.w3.org/1999/xlink" x="0px" y="0px"
	 viewBox="0 0 230 158.66" style="enable-background:new 0 0 230 158.66;" xml:space="preserve">
<style type="text/css">
	.st0{opacity:0.7;fill:#FFFFFF;}
	.st1{fill:#549EAB;}
	.st2{opacity:0.75;}
	.st3{fill:#E6E6E6;}
	.st4{fill:#FFFFFF;}
	.st5{fill:#B9CE59;}
	.st6{fill:none;stroke:#549EAB;stroke-width:1.5104;stroke-miterlimit:10;}
	.st7{fill:none;stroke:#FCFCFC;stroke-width:4.1275;stroke-linecap:round;stroke-linejoin:round;stroke-miterlimit:10;}
	.st8{fill:none;stroke:#B9CE59;stroke-width:4.5575;stroke-linecap:round;stroke-linejoin:round;stroke-miterlimit:10;}
	.st9{fill:none;stroke:#FCFCFC;stroke-width:4.5575;stroke-linecap:round;stroke-linejoin:round;stroke-miterlimit:10;}
	.st10{fill:none;stroke:#B9CE59;stroke-width:4.5575;stroke-linejoin:round;stroke-miterlimit:10;}
	.st11{fill:none;stroke:#FFFFFF;stroke-width:4.5575;stroke-linecap:round;stroke-linejoin:round;stroke-miterlimit:10;}
	.st12{fill:none;stroke:#549EAB;stroke-width:1.5;stroke-miterlimit:10;}
	.st13{fill:none;stroke:#549EAB;stroke-width:1.2216;stroke-miterlimit:10;}
	.st14{fill:none;stroke:#549EAB;stroke-width:3;stroke-miterlimit:10;}
	.st15{fill-rule:evenodd;clip-rule:evenodd;fill:#FFFFFF;}
	.st16{fill-rule:evenodd;clip-rule:evenodd;}
	.st17{opacity:0.4;}
	.st18{fill:none;stroke:#FFFFFF;stroke-width:5;stroke-linecap:round;stroke-linejoin:round;stroke-miterlimit:10;}
</style>
<g id="Layer_4">
</g>
<g id="Layer_3">
</g>
<g id="Layer_2">
</g>
<g id="Layer_1">
	<g>
		<path d="M145.76,158.66v-9.26l-8.43-12.6h3.48l4.32,6.61c0.8,1.23,1.55,2.45,2.23,3.68c0.67-1.14,1.48-2.43,2.42-3.85l4.23-6.44
			h3.37l-8.73,12.6v9.26H145.76z M126.51,158.66v-19.29h-7.2v-2.56h17.31v2.56h-7.2v19.29H126.51z M108.46,158.66v-21.86h2.9v19.29
			h10.74v2.56H108.46z M92.12,149.69h7.45l-2.28-6.06c-0.69-1.84-1.21-3.36-1.57-4.56c-0.3,1.42-0.7,2.82-1.21,4.21L92.12,149.69z
			 M85.83,158.66l8.38-21.86h3.18l8.9,21.86H103l-2.53-6.62h-9.2l-2.37,6.62H85.83z M67.93,158.66v-21.86h15.78v2.56H70.83v6.72
			h12.06v2.56H70.83v7.45h13.4v2.56H67.93z M48.78,146.45h6.21c1.32,0,2.35-0.14,3.09-0.41c0.74-0.27,1.31-0.71,1.69-1.31
			c0.39-0.6,0.58-1.25,0.58-1.96c0-1.03-0.37-1.89-1.12-2.55c-0.75-0.67-1.93-1-3.54-1h-6.91V146.45z M45.88,158.66v-21.86h9.69
			c1.95,0,3.43,0.2,4.44,0.59c1.01,0.39,1.82,1.08,2.43,2.08c0.61,0.99,0.91,2.09,0.91,3.29c0,1.55-0.5,2.86-1.51,3.92
			c-1,1.06-2.55,1.74-4.65,2.03c0.77,0.37,1.35,0.73,1.75,1.09c0.84,0.77,1.64,1.75,2.39,2.91l3.78,5.95H61.5l-2.89-4.55
			c-0.84-1.32-1.54-2.32-2.08-3.02c-0.55-0.7-1.04-1.18-1.47-1.46c-0.43-0.27-0.87-0.47-1.32-0.58c-0.33-0.07-0.86-0.1-1.61-0.1
			h-3.35v9.71H45.88z"/>
		<path d="M162.97,79.78l14.89,14.89l7.05,7.06c-0.66,0.87-1.37,1.69-2.16,2.49c-4.69,4.69-10.35,7.03-16.99,7.03
			c-6.6,0-12.25-2.34-16.94-7.03c-4.69-4.69-7.03-10.35-7.03-16.99c0-6.6,2.35-12.25,7.03-16.94c0.8-0.79,1.62-1.52,2.47-2.18
			c4.16-3.23,8.98-4.85,14.47-4.85h0.03v0.01h1.51l-13.2-13.2c-4.87,1.49-9.33,3.98-13.38,7.47c-0.82,0.7-1.63,1.44-2.42,2.23
			c-1.63,1.63-3.07,3.33-4.35,5.1c-1.28-1.77-2.72-3.48-4.35-5.1c-7.57-7.57-16.7-11.35-27.41-11.35h-23.7H66.74h-7.01l-0.24,0.32
			L0,126.23h18.76l12.62-16.45h35.35v16.24h35.45c10.71,0,19.84-3.8,27.41-11.4c1.62-1.61,3.05-3.29,4.32-5.05
			c1.29,1.79,2.74,3.51,4.38,5.15c7.6,7.6,16.75,11.39,27.46,11.39c10.74,0,19.92-3.8,27.51-11.39c0.79-0.79,1.54-1.59,2.24-2.41
			c3.48-4.05,5.97-8.51,7.46-13.39l-19.15-19.15H162.97z M42.99,94.67l16.49-21.49l7.26-9.45v30.94H42.99z M118.63,103.66
			c-4.54,4.57-10.01,6.86-16.43,6.86H82.26V63.94h19.93c6.42,0,11.9,2.27,16.43,6.8c4.57,4.57,6.85,10.06,6.85,16.49
			C125.48,93.65,123.2,99.13,118.63,103.66z"/>
		<path class="st1" d="M223.31,12.77c0,0-14.6,3.2-20.32,15.79c-5.73,12.59-17.25,17.87-19.46,18.29
			C191.68,45.71,220.79,41.14,223.31,12.77 M183.15,48.8c0,0,28.53,13.09,46.85-8.42c-7.71-2.65-17.7,0.45-24.9,4.05
			C197.9,48.03,189.9,50.13,183.15,48.8z M184.92,52.19c0,0,15.61,17.68,36.99,11.26c-6.57-8.42-19.12-6.06-23.08-6.36
			C194.87,56.8,189.22,55.38,184.92,52.19z M160.37,1.56c0,0-14.6,24.03,16.81,49.35c24.11,16.65,32.47,29.1,26.78,45.01
			c1.24-11.18-8.57-23.1-17.46-30.36c-7.33-5.99-27.62-20.76-31.97-33.71C149.94,18.19,152.61,8.66,160.37,1.56z"/>
		<path class="st5" d="M162.56,11.68c0,0,13.81,10.46,17.24,32.32C171.82,36.59,164.27,23.01,162.56,11.68 M176.62,3.04
			c0,0,16.27,15.03,5.1,40.95c0.74-10.3-1.16-19.52-4.49-26.03C173.9,11.44,175.04,5.37,176.62,3.04z M199.77,0
			c0,0-8.4,4.86-9.04,23.56c-0.06,9.42-2.51,16.48-8.02,21.23C190.27,40.37,208.79,23.42,199.77,0z M160.72,46.69
			c0,0,6.72,11.64,23.78,21.53c7.99,5.01,17.87,13.33,17.38,26.57c-1.78-6.7-7.9-16.01-15.61-21.07
			C171.87,64.26,162.4,56.7,160.72,46.69z"/>
	</g>
</g>
<g id="Layer_5">
</g>
<g id="Layer_6">
</g>
<g id="Layer_7">
</g>
</svg>
